<?xml version="1.0" standalone="no"?>
<!DOCTYPE svg PUBLIC "-//W3C//DTD SVG 20010904//EN"
 "http://www.w3.org/TR/2001/REC-SVG-20010904/DTD/svg10.dtd">
<svg version="1.0" xmlns="http://www.w3.org/2000/svg"
 width="700.000000pt" height="700.000000pt" viewBox="0 0 700.000000 700.000000"
 preserveAspectRatio="xMidYMid meet">
<metadata>
Created by potrace 1.11, written by Peter Selinger 2001-2013
</metadata>
<g transform="translate(0.000000,700.000000) scale(0.100000,-0.100000)"
fill="#000000" stroke="none">
<path d="M1359 6399 c-37 -8 -75 -34 -103 -73 -21 -27 -21 -35 -21 -812 l0
-784 -25 -1 c-14 0 -236 -2 -495 -3 -526 -2 -509 1 -582 -75 -72 -74 -66 103
-67 -2026 l-1 -1920 22 -36 c13 -20 50 -57 82 -83 113 -88 -15 -80 1336 -84
1541 -4 3763 -4 4200 0 l340 3 46 27 c85 50 106 99 234 553 42 149 78 277 80
285 15 55 343 1212 477 1680 71 244 84 317 63 355 -34 66 -94 126 -153 156
l-63 32 -260 1 c-142 0 -260 3 -260 6 -1 3 -2 203 -3 445 -3 501 3 465 -95
583 -76 91 -91 95 -366 98 -126 1 -233 2 -236 3 -4 1 -6 118 -7 261 l0 259
-30 53 c-36 62 -66 92 -105 107 -17 7 -123 11 -270 11 l-242 0 1 157 c1 155 0
158 -28 213 -64 121 -80 127 -378 126 l-230 -1 0 155 c0 133 -3 160 -19 190
-10 19 -27 50 -36 68 -10 19 -35 42 -58 53 -39 21 -52 21 -1378 22 -736 1
-1352 -1 -1370 -4z"/>
</g>
</svg>
